<svg width="72" height="107" viewBox="0 0 72 107" fill="none" xmlns="http://www.w3.org/2000/svg">
<path fill-rule="evenodd" clip-rule="evenodd" d="M36 53.5C36 43.6971 43.9471 35.75 53.75 35.75C63.5529 35.75 71.5 43.6971 71.5 53.5C71.5 63.3029 63.5529 71.25 53.75 71.25C43.9471 71.25 36 63.3029 36 53.5Z" fill="#1ABCFE"/>
<path fill-rule="evenodd" clip-rule="evenodd" d="M0.5 89C0.5 79.1971 8.44694 71.25 18.25 71.25H36V89C36 98.8029 28.0529 106.75 18.25 106.75C8.44694 106.75 0.5 98.8029 0.5 89Z" fill="#0ACF83"/>
<path fill-rule="evenodd" clip-rule="evenodd" d="M36 0.25V35.75H53.75C63.5529 35.75 71.5 27.8029 71.5 18C71.5 8.19694 63.5529 0.25 53.75 0.25H36Z" fill="#FF7262"/>
<path fill-rule="evenodd" clip-rule="evenodd" d="M0.5 18C0.5 27.8029 8.44694 35.75 18.25 35.75H36V0.25H18.25C8.44694 0.25 0.5 8.19694 0.5 18Z" fill="#F24E1E"/>
<path fill-rule="evenodd" clip-rule="evenodd" d="M0.5 53.5C0.5 63.3029 8.44694 71.25 18.25 71.25H36V35.75H18.25C8.44694 35.75 0.5 43.6971 0.5 53.5Z" fill="#A259FF"/>
</svg>
