<svg width="113" height="130" viewBox="0 0 113 130" fill="none" xmlns="http://www.w3.org/2000/svg">
<path d="M0.238281 100.662L0.992654 99.6103L36.5814 32.0982L36.6568 31.3838L20.9703 1.91877C20.6831 1.37996 20.2338 0.945082 19.6859 0.675669C19.1379 0.406257 18.5192 0.315947 17.9171 0.417517C17.3151 0.519087 16.7602 0.807394 16.331 1.24165C15.9018 1.67591 15.62 2.23413 15.5255 2.83733L0.238281 100.662Z" fill="#FFC24A"/>
<path d="M0.681641 99.8631L1.24964 98.7537L36.4701 31.9427L20.8235 2.36235C20.5654 1.84792 20.1477 1.43095 19.6327 1.17389C19.1178 0.916844 18.5335 0.833553 17.9673 0.936504C17.401 1.03945 16.8834 1.3231 16.4919 1.74495C16.1005 2.1668 15.8562 2.70414 15.7958 3.27647L0.681641 99.8631Z" fill="#FFA712"/>
<path d="M48.0918 53.6689L59.7713 41.6877L48.0874 19.407C47.8302 18.9275 47.4478 18.5267 46.9809 18.2473C46.514 17.9679 45.9801 17.8203 45.436 17.8203C44.8919 17.8203 44.3579 17.9679 43.891 18.2473C43.4241 18.5267 43.0417 18.9275 42.7846 19.407L36.541 31.3084V32.3246L48.0918 53.6689Z" fill="#F4BD62"/>
<path d="M47.8831 53.1806L59.2564 41.5543L47.8831 19.8993C47.6973 19.4306 47.3798 19.0256 46.969 18.7332C46.5581 18.4409 46.0715 18.2736 45.5677 18.2515C45.064 18.2295 44.5646 18.3536 44.1298 18.609C43.695 18.8644 43.3433 19.2401 43.1173 19.6908L36.8426 31.8007L36.6562 32.4175L47.8831 53.1806Z" fill="#FFA50E"/>
<path d="M0.248047 100.667L0.589735 100.321L1.8278 99.8193L47.3565 54.4592L47.9334 52.8883L36.5779 31.2422L0.248047 100.667Z" fill="#F6820C"/>
<path d="M49.5478 123.541L90.7633 100.56L78.9862 28.0908C78.9017 27.58 78.6782 27.1022 78.34 26.7101C78.0019 26.318 77.5623 26.0266 77.0694 25.8679C76.5765 25.7093 76.0494 25.6895 75.546 25.8108C75.0426 25.9321 74.5824 26.1897 74.2159 26.5555L0.238281 100.662L41.2097 123.537C42.4835 124.248 43.9179 124.621 45.3765 124.621C46.8352 124.621 48.2696 124.248 49.5433 123.537" fill="#FDE068"/>
<path d="M90.3857 100.37L78.7062 28.4466C78.6856 27.9579 78.5205 27.4864 78.2318 27.0917C77.943 26.6969 77.5437 26.3967 77.0843 26.229C76.6249 26.0613 76.126 26.0336 75.6509 26.1495C75.1758 26.2654 74.7457 26.5197 74.4151 26.8801L0.681641 100.525L41.2005 123.156C42.4641 123.861 43.887 124.231 45.334 124.231C46.781 124.231 48.2039 123.861 49.4675 123.156L90.3857 100.37Z" fill="#FCCA3F"/>
<path d="M49.5478 122.849C48.274 123.56 46.8396 123.933 45.381 123.933C43.9223 123.933 42.4879 123.56 41.2142 122.849L0.57553 100.316L0.238281 100.662L41.2097 123.537C42.4835 124.248 43.9179 124.621 45.3765 124.621C46.8352 124.621 48.2696 124.248 49.5433 123.537L90.7633 100.56L90.6612 99.9385L49.5478 122.849Z" fill="#EEAB37"/>
<path d="M77.4561 49.1875L42.8613 64.8696V113.988L70.4626 101.483V129.062L112.064 110.172V64.8696L77.4561 49.1875Z" fill="#252525"/>
<path d="M77.4546 56.8643L49.8711 69.3736V81.7009L77.4546 69.1872L105.056 81.7009V69.3736L77.4546 56.8643Z" fill="white"/>
<path d="M77.4546 78.3145L49.8711 90.8149V103.138L77.4546 90.6196L105.056 103.138V90.8149L77.4546 78.3145Z" fill="white"/>
<path d="M101.44 107.31L87.8832 101.159L77.4551 105.89V118.181L101.44 107.31Z" fill="white"/>
</svg>
