<svg width="125" height="125" viewBox="0 0 125 125" fill="none" xmlns="http://www.w3.org/2000/svg">
<path d="M2.97254 68.7711C-0.490845 65.3076 -0.490845 59.6924 2.97254 56.2289L56.2289 2.97254C59.6924 -0.490845 65.3076 -0.490845 68.7711 2.97254L122.027 56.2289C125.491 59.6924 125.491 65.3076 122.027 68.7711L68.7711 122.027C65.3076 125.491 59.6924 125.491 56.2289 122.027L2.97254 68.7711Z" fill="#EE513B"/>
<path d="M45.4105 13.9609L40.0176 19.354L53.9464 33.2829C53.3829 34.4918 53.0683 35.84 53.0683 37.2617C53.0683 41.2981 55.6043 44.742 59.1698 46.087V80.1608C55.6043 81.5058 53.0683 84.9498 53.0683 88.9861C53.0683 94.194 57.2901 98.4158 62.498 98.4158C67.7058 98.4158 71.9276 94.194 71.9276 88.9861C71.9276 85.3269 69.8433 82.1541 66.797 80.5912V46.1336L80.1117 59.4483C79.5757 60.6327 79.2775 61.9475 79.2775 63.332C79.2775 68.5399 83.4993 72.7617 88.7071 72.7617C93.915 72.7617 98.1368 68.5399 98.1368 63.332C98.1368 58.1242 93.915 53.9023 88.7071 53.9023C87.695 53.9023 86.7205 54.0616 85.8064 54.3567L71.5065 40.0569C71.7803 39.1738 71.9276 38.2349 71.9276 37.2617C71.9276 32.0538 67.7058 27.8319 62.498 27.8319C61.5248 27.8319 60.5863 27.9794 59.7028 28.2531L45.4105 13.9609Z" fill="white"/>
</svg>
