<svg width="90" height="121" viewBox="0 0 90 121" fill="none" xmlns="http://www.w3.org/2000/svg">
<path d="M45.1857 32.1523C69.8911 12.9728 57.2116 0.5 57.2116 0.5C59.0986 20.3277 36.7981 25.0094 30.8202 38.6345C26.7413 47.9319 33.6136 56.0724 45.1774 66.3328C44.1552 64.0603 42.5783 61.8523 40.9823 59.6169C35.5377 51.9924 29.8662 44.0495 45.1857 32.1523Z" fill="#E76F00"/>
<path d="M49.1297 70.5392C49.1297 70.5392 56.5622 64.5425 50.6762 57.8784C30.7232 35.2699 72.499 25.0098 72.499 25.0098C46.993 37.2973 50.8007 44.5907 57.2117 53.4512C64.0757 62.9522 49.1297 70.5392 49.1297 70.5392Z" fill="#E76F00"/>
<path d="M71.0129 88.4211C93.9077 76.7218 83.3222 65.4793 75.9336 66.9939C74.1224 67.3644 73.315 67.6858 73.315 67.6858C73.315 67.6858 73.9874 66.6501 75.2714 66.2016C89.8885 61.1484 101.13 81.1059 70.5527 89.0106C70.5527 89.0106 70.9071 88.6993 71.0129 88.4211Z" fill="#5382A1"/>
<path d="M23.3745 73.613C9.04995 71.732 31.2289 66.5518 31.2289 66.5518C31.2289 66.5518 22.6159 65.9806 12.023 71.0158C-0.50261 76.9741 43.0061 79.6839 65.5283 73.859C67.8698 72.2866 71.106 70.9239 71.106 70.9239C71.106 70.9239 61.8896 72.5424 52.7111 73.304C41.4803 74.2291 29.4229 74.4095 23.3745 73.613Z" fill="#5382A1"/>
<path d="M28.8236 84.7847C20.8355 83.9724 26.0658 80.165 26.0658 80.165C5.39576 86.9113 37.5663 94.5617 66.4492 86.2562C63.3791 85.1919 61.4268 83.2453 61.4268 83.2453C47.3107 85.9183 39.1533 85.8328 28.8236 84.7847Z" fill="#5382A1"/>
<path d="M32.3039 96.8716C24.3221 95.9694 28.9852 93.3027 28.9852 93.3027C10.2218 98.4582 40.3979 109.109 64.2869 99.0414C60.3742 97.5451 57.5726 95.8179 57.5726 95.8179C46.9162 97.8009 41.9737 97.9565 32.3039 96.8716Z" fill="#5382A1"/>
<path d="M82.2701 103.021C82.2701 103.021 85.7209 105.817 78.4695 107.98C64.6804 112.088 21.0785 113.328 8.96603 108.144C4.6119 106.281 12.7771 103.696 15.3456 103.154C18.0242 102.582 19.555 102.689 19.555 102.689C14.7127 99.3346 -11.7432 109.275 6.11666 112.122C54.8231 119.89 94.9039 108.624 82.2701 103.021Z" fill="#5382A1"/>
<path d="M90.0006 109.13C89.2015 119.355 55.4545 121.506 33.4784 120.123C19.1418 119.219 16.2686 116.96 16.2266 116.927C29.9478 119.151 53.0815 119.556 71.8386 116.085C88.4643 113.006 90.0006 109.13 90.0006 109.13Z" fill="#5382A1"/>
</svg>
