<svg width="148" height="146" viewBox="0 0 148 146" fill="none" xmlns="http://www.w3.org/2000/svg">
<path fill-rule="evenodd" clip-rule="evenodd" d="M35.8958 24.2559C34.4968 24.2515 33.1032 24.429 31.75 24.7841V24.9689H31.9507C32.9199 26.4319 34.0004 27.8179 35.1828 29.1147C35.9961 30.7308 36.7038 32.3415 37.5118 33.9576C37.6122 33.8573 37.7125 33.7516 37.7125 33.7516C38.4628 33.1561 39.05 32.3803 39.4194 31.4965C39.7888 30.6127 39.9283 29.6498 39.825 28.6975C39.3827 28.0155 38.9773 27.3103 38.6103 26.585C38.003 25.5763 36.688 25.0693 35.8799 24.2612" fill="#5D87A1"/>
<path fill-rule="evenodd" clip-rule="evenodd" d="M136.214 112.389C129.552 111.921 122.867 112.887 116.61 115.22C115.094 115.827 112.675 115.827 112.464 117.745C113.277 118.553 113.372 119.857 114.085 120.982C115.469 123.324 117.246 125.409 119.34 127.145C121.453 128.761 123.565 130.372 125.81 131.787C129.744 134.222 134.196 135.632 138.031 138.056C140.259 139.472 142.477 141.288 144.706 142.809C145.815 143.617 146.518 144.922 147.933 145.45V145.144C147.517 144.021 147.003 142.938 146.396 141.906C145.387 140.903 144.373 139.989 143.359 138.98C140.397 135.063 136.853 131.622 132.85 128.777C129.612 126.548 122.535 123.496 121.231 119.799L121.025 119.593C123.394 119.257 125.728 118.713 128.001 117.966C131.434 117.058 134.566 117.264 138.099 116.382C139.721 115.975 142.652 114.967 142.652 114.967V113.382C140.845 111.587 139.552 109.184 137.65 107.488C132.478 102.973 126.966 98.8628 121.162 95.1937C118.062 93.1921 114.064 91.9034 110.763 90.1976C109.57 89.5955 107.595 89.2998 106.871 88.2963C105.23 85.8879 103.855 83.3078 102.773 80.6016C99.8788 75.1091 97.0745 69.0198 94.5817 63.2104C93.1063 59.3172 91.4045 55.5135 89.4853 51.8187C80.2238 36.0725 66.8555 23.1405 50.8107 14.4064C46.7623 12.4468 42.458 11.0672 38.0248 10.3081C35.5215 10.2025 33.0287 10.0071 30.5307 9.91203C28.9182 8.8556 27.3843 7.6836 25.9413 6.40528C20.227 2.78762 5.54512 -4.98638 1.34125 5.30678C-1.35219 11.808 5.34443 18.1983 7.64178 21.4991C9.5789 23.8265 11.2857 26.3362 12.7382 28.9932C13.4406 30.6937 13.6413 32.4947 14.3226 34.2744C15.7886 38.8433 17.5293 43.3194 19.5352 47.6782C20.608 49.8326 21.8439 51.9018 23.232 53.8679C24.0401 54.9717 25.4343 55.4522 25.7353 57.2743C24.6278 59.6549 23.853 62.1766 23.4327 64.7684C21.687 70.2815 21.0445 76.0845 21.542 81.8459C22.0395 87.6073 23.6672 93.2143 26.3321 98.3466C27.9165 100.845 31.7296 106.342 36.826 104.24C41.3203 102.445 40.3222 96.7463 41.6213 91.7556C41.9171 90.5462 41.7217 89.754 42.3185 88.9565V89.9282C42.3185 89.9282 44.8693 95.5316 46.1368 98.3782C49.5838 103.601 53.8659 108.223 58.8118 112.057C60.7682 113.765 62.3443 115.864 63.4382 118.22V120.031H65.6933C65.6463 119.215 65.4199 118.418 65.0301 117.699C64.6403 116.98 64.0968 116.355 63.4382 115.87C61.5889 113.966 59.8952 111.918 58.3735 109.743C54.2396 103.856 50.5939 97.6404 47.473 91.1588C45.8886 87.99 44.5524 84.515 43.2849 81.3515C42.704 80.1315 42.704 78.2884 41.727 77.6546C39.9229 79.7891 38.3574 82.1144 37.0583 84.5889C35.4813 89.5905 34.5634 94.7764 34.3279 100.015C33.9424 100.121 34.1325 100.015 33.9424 100.216C30.8317 99.3975 29.7597 96.0334 28.5872 93.1815C25.5585 84.3858 25.2529 74.8812 27.7105 65.9091C28.3865 63.7702 31.3176 57.0313 30.1452 54.9875C29.559 53.0387 27.6102 51.9244 26.5434 50.3875C25.1815 48.32 24.0095 46.1335 23.0419 43.8546C20.7234 38.172 19.551 31.8345 17.0266 26.1096C15.6291 23.3563 14.002 20.7257 12.1625 18.2458C10.1277 15.7686 8.33286 13.1037 6.80206 10.287C6.31618 9.16209 5.6349 7.32422 6.41125 6.09897C6.46364 5.75862 6.62549 5.44461 6.8723 5.20447C7.11911 4.96434 7.43744 4.81114 7.77909 4.76809C9.03603 3.64847 12.6431 5.0744 13.9053 5.68703C17.2978 7.02255 20.5291 8.73565 23.5383 10.794C24.9009 11.8186 28.1119 14.4117 28.1119 14.4117H29.0625C32.2947 15.1141 35.9282 14.6071 38.9701 15.5207C44.092 17.2281 48.98 19.5701 53.52 22.492C66.901 31.022 77.779 42.9498 85.0438 57.0577C86.2585 59.3762 86.7707 61.5046 87.8798 63.9234C89.9923 68.8877 92.6329 73.9577 94.7454 78.7848C96.6091 83.5605 99.0193 88.1045 101.928 92.3259C103.438 94.4384 109.507 95.5581 112.237 96.6671C114.608 97.4874 116.935 98.4305 119.208 99.4926C122.646 101.605 126.074 104.04 129.311 106.358C130.922 107.573 135.976 110.097 136.282 112.12" fill="#00758F"/>
</svg>
