<svg width="142" height="143" viewBox="0 0 142 143" fill="none" xmlns="http://www.w3.org/2000/svg">
<path d="M82.8885 71.3931C82.8885 65.028 77.5666 59.8672 71.0009 59.8672C64.4361 59.8672 59.1133 65.028 59.1133 71.3931C59.1133 77.7592 64.4361 82.9196 71.0009 82.9196C77.5666 82.9196 82.8885 77.7592 82.8885 71.3931Z" fill="#53C1DE"/>
<path fill-rule="evenodd" clip-rule="evenodd" d="M109.608 50.182C112.118 40.2912 115.274 21.9497 104.15 15.7313C93.0779 9.54009 78.6698 21.4037 71.0617 28.5247C63.4758 21.4746 48.663 9.66176 37.5485 15.8999C26.4808 22.1119 29.8938 40.1493 32.4599 50.1022C22.1356 52.9453 4.4375 59.069 4.4375 71.5806C4.4375 84.0566 22.1172 90.719 32.3803 93.5595C29.8048 103.567 26.5627 121.347 37.6445 127.545C48.8005 133.782 63.5672 122.251 71.2458 115.052C78.9027 122.215 93.1724 133.822 104.247 127.606C115.355 121.371 112.462 103.275 109.896 93.2648C119.845 90.4182 137.562 83.9008 137.562 71.5806C137.562 59.1893 119.769 53.0158 109.608 50.182ZM108.347 87.9598C106.662 82.7883 104.388 77.2889 101.606 71.6081C104.261 66.0612 106.447 60.6328 108.085 55.4946C115.534 57.5887 131.876 62.3745 131.876 71.5806C131.876 80.8731 116.194 85.7042 108.347 87.9598ZM101.397 122.834C93.1343 127.471 80.8606 116.371 75.2059 111.096C78.9573 107.118 82.7061 102.494 86.3648 97.358C92.801 96.8046 98.8808 95.8994 104.395 94.6635C106.201 101.744 109.696 118.176 101.397 122.834ZM40.4861 122.768C32.2226 118.148 35.9996 102.282 37.8943 94.9103C43.347 96.08 49.3832 96.9213 55.8344 97.4285C59.5171 102.454 63.3746 107.073 67.2619 111.118C62.4591 115.622 48.7881 127.409 40.4861 122.768ZM10.1241 71.5806C10.1241 62.2534 26.3679 57.5021 33.987 55.4134C35.6531 60.667 37.8383 66.1601 40.4755 71.715C37.8042 77.3524 35.5877 82.9326 33.9063 88.2482C26.6414 86.2318 10.1241 80.9135 10.1241 71.5806ZM40.3977 20.672C48.6949 16.0153 61.569 27.3561 67.0768 32.4606C63.2095 36.4872 59.3875 41.0714 55.7363 46.0676C49.4755 46.6303 43.482 47.5337 37.9721 48.7443C35.9049 40.7169 32.1094 25.3236 40.3977 20.672ZM90.4331 52.0609C94.6807 52.5805 98.7504 53.2719 102.571 54.1177C101.424 57.6827 99.9946 61.4107 98.3106 65.2323C95.8695 60.7415 93.2492 56.3408 90.4331 52.0609ZM71.0635 36.4009C73.6865 39.156 76.3135 42.2327 78.8979 45.5706C73.6558 45.3301 68.4054 45.3292 63.1634 45.567C65.75 42.2601 68.3996 39.188 71.0635 36.4009ZM43.7382 65.2283C42.0821 61.42 40.6652 57.6756 39.508 54.0595C43.3064 53.2355 47.357 52.5619 51.5771 52.0507C48.753 56.3213 46.1371 60.7202 43.7382 65.2283ZM51.6982 91.504C47.3388 91.0323 43.2268 90.3929 39.4297 89.5915C40.6051 85.9119 42.0532 82.0868 43.7447 78.1964C46.1766 82.7515 48.8325 87.193 51.6982 91.504ZM71.221 107.15C68.5257 104.33 65.837 101.211 63.2113 97.8559C68.483 98.0564 73.765 98.0569 79.0363 97.8288C76.4439 101.245 73.8262 104.368 71.221 107.15ZM98.3647 77.9985C100.144 81.931 101.644 85.7353 102.836 89.3527C98.9753 90.207 94.8081 90.8948 90.4172 91.4055C93.2541 87.0443 95.9161 82.5753 98.3647 77.9985ZM83.1911 92.0738C75.1273 92.6325 67.0134 92.6263 58.9469 92.1195C54.3634 85.6279 50.2831 78.8008 46.761 71.7132C50.2662 64.6403 54.3168 57.8265 58.8785 51.3451C66.9508 50.7536 75.0727 50.7518 83.145 51.3487C87.6677 57.8296 91.712 64.6257 95.2984 71.6347C91.7546 78.7041 87.6828 85.5316 83.1911 92.0738ZM101.309 20.508C109.609 25.1494 105.915 41.6335 104.102 48.8015C98.5786 47.5657 92.5809 46.6462 86.3018 46.0747C82.6436 41.0245 78.8535 36.4324 75.0488 32.4577C80.6272 27.2433 93.0903 15.9121 101.309 20.508Z" fill="#53C1DE"/>
</svg>
