<svg width="126" height="125" viewBox="0 0 126 125" fill="none" xmlns="http://www.w3.org/2000/svg">
<path fill-rule="evenodd" clip-rule="evenodd" d="M63 0.375C75.2872 0.375 87.2984 4.01857 97.5148 10.845C107.731 17.6713 115.694 27.3739 120.396 38.7258C125.098 50.0777 126.328 62.5689 123.931 74.62C121.534 86.6711 115.617 97.7407 106.929 106.429C98.2407 115.117 87.1711 121.034 75.12 123.431C63.0689 125.828 50.5777 124.598 39.2258 119.896C27.8739 115.194 18.1713 107.231 11.345 97.0148C4.51857 86.7984 0.875 74.7872 0.875 62.5C0.875 46.0234 7.42029 30.2217 19.071 18.571C30.7217 6.92029 46.5234 0.375 63 0.375Z" fill="#CC6699"/>
<path d="M101.97 26.965C99.1566 15.9333 80.8607 12.3212 63.5456 18.4538C52.7017 22.0977 42.683 27.8445 34.0629 35.3652C24.5267 44.2845 23.0046 52.0502 23.6303 55.294C25.8491 66.7427 41.5268 74.2244 47.9744 79.7757V79.8067C46.0752 80.743 32.1592 87.7942 28.8932 94.983C25.4586 102.58 29.439 108.029 32.0793 108.761C36.0434 109.716 40.2068 109.405 43.9855 107.873C47.7641 106.341 50.9683 103.665 53.1486 100.219C54.9504 97.4277 56.0778 94.255 56.4413 90.9524C56.8048 87.6498 56.3946 84.3079 55.2431 81.1912C58.3487 80.4021 61.5771 80.2168 64.7526 80.6454C75.6511 81.919 77.79 88.7217 77.3817 91.5705C77.1897 92.5846 76.7816 93.5455 76.1851 94.3878C75.5886 95.23 74.8178 95.934 73.9249 96.4518C73.1617 96.9266 72.9265 97.0864 72.9931 97.4414C73.0863 97.9517 73.4368 97.9339 74.0891 97.823C75.7269 97.3072 77.17 96.3073 78.2283 94.9551C79.2866 93.603 79.9104 91.9619 80.0176 90.2482C80.2794 83.5919 73.885 76.1103 62.5605 76.3011C59.2714 76.2072 55.9894 76.657 52.8468 77.6324C52.6915 77.4549 52.5318 77.2774 52.3676 77.0999C45.3652 69.6315 32.4254 64.3465 32.9713 54.3044C33.1709 50.6524 34.4401 41.0407 57.8213 29.379C76.9913 19.825 92.3361 22.4565 94.9898 28.2829C98.7794 36.6077 86.7892 52.0724 66.8826 54.3044C64.6824 54.7511 62.4098 54.6966 60.2335 54.145C58.0573 53.5935 56.0331 52.559 54.3112 51.1183C53.2639 49.9645 53.1086 49.9157 52.7181 50.1287C52.0836 50.4793 52.4874 51.4999 52.7181 52.1034C53.4804 53.4772 54.5093 54.6849 55.7445 55.6557C56.9797 56.6264 58.3963 57.3408 59.9113 57.7568C67.7381 59.4575 75.9017 58.6501 83.2437 55.4493C95.3181 50.7944 104.735 37.8147 101.97 26.965ZM50.6547 83.1925C51.5361 86.2309 51.4912 89.463 50.526 92.4758C50.4225 92.7894 50.3086 93.1 50.1843 93.4077C50.0601 93.7153 49.9255 94.0112 49.7805 94.2952C49.0337 95.8232 48.0663 97.2331 46.9094 98.4797C43.3018 102.416 38.2563 103.907 36.0953 102.651C33.7611 101.298 34.9282 95.7462 39.1128 91.322C42.3281 88.1425 46.0351 85.5023 50.0911 83.5032L50.6547 83.1925Z" fill="white"/>
</svg>
