<svg width="34" height="28" viewBox="0 0 34 28" fill="none" xmlns="http://www.w3.org/2000/svg">
<path d="M3.66732 27.3337C2.75065 27.3337 1.96593 27.0073 1.31315 26.3545C0.660373 25.7017 0.333984 24.917 0.333984 24.0003V4.00033C0.333984 3.08366 0.660373 2.29894 1.31315 1.64616C1.96593 0.993381 2.75065 0.666992 3.66732 0.666992H30.334C31.2506 0.666992 32.0354 0.993381 32.6881 1.64616C33.3409 2.29894 33.6673 3.08366 33.6673 4.00033V24.0003C33.6673 24.917 33.3409 25.7017 32.6881 26.3545C32.0354 27.0073 31.2506 27.3337 30.334 27.3337H3.66732ZM17.0007 15.667L3.66732 7.33366V24.0003H30.334V7.33366L17.0007 15.667ZM17.0007 12.3337L30.334 4.00033H3.66732L17.0007 12.3337ZM3.66732 7.33366V4.00033V24.0003V7.33366Z" fill="#5F6368"/>
</svg>
